<?xml version="1.0" encoding="UTF-8" standalone="no"?>
<!DOCTYPE svg PUBLIC "-//W3C//DTD SVG 1.1//EN"
 "http://www.w3.org/Graphics/SVG/1.1/DTD/svg11.dtd">
<!-- Generated by graphviz version 2.38.0 (20140413.2041)
 -->
<!-- Title: H Pages: 1 -->
<svg width="304pt" height="176pt"
 viewBox="0.00 0.00 304.00 176.00" xmlns="http://www.w3.org/2000/svg" xmlns:xlink="http://www.w3.org/1999/xlink">
<g id="graph0" class="graph" transform="scale(1 1) rotate(0) translate(4 172)">
<title>H</title>
<polygon fill="white" stroke="none" points="-4,4 -4,-172 300,-172 300,4 -4,4"/>
<text text-anchor="middle" x="148" y="-6.8" font-family="Times,serif" font-size="14.00">Persistence port</text>
<g id="clust1" class="cluster"><title>cluster_MeetupOrganizing_Persistence_MySQL</title>
<polygon fill="none" stroke="black" points="8,-86 8,-160 144,-160 144,-86 8,-86"/>
<text text-anchor="middle" x="76" y="-144.8" font-family="Times,serif" font-size="14.00">MySQL adapter</text>
</g>
<g id="clust2" class="cluster"><title>cluster_MeetupOrganizing_Persistence_InMemory</title>
<polygon fill="none" stroke="black" points="152,-86 152,-160 288,-160 288,-86 152,-86"/>
<text text-anchor="middle" x="220" y="-144.8" font-family="Times,serif" font-size="14.00">InMemory adapter</text>
</g>
<!-- a4a74563b6e14eade8350a3ed12f471a -->
<g id="node1" class="node"><title>a4a74563b6e14eade8350a3ed12f471a</title>
<polygon fill="none" stroke="black" stroke-dasharray="5,2" points="208.207,-58 87.7928,-58 87.7928,-22 208.207,-22 208.207,-58"/>
<text text-anchor="middle" x="148" y="-35.8" font-family="Times,serif" font-size="14.00">MeetupRepository</text>
</g>
<!-- 36bc593d778e1a6432f2afa8667aa52d -->
<g id="node2" class="node"><title>36bc593d778e1a6432f2afa8667aa52d</title>
<polygon fill="none" stroke="black" points="136.207,-130 15.7928,-130 15.7928,-94 136.207,-94 136.207,-130"/>
<text text-anchor="middle" x="76" y="-107.8" font-family="Times,serif" font-size="14.00">MeetupRepository</text>
</g>
<!-- 36bc593d778e1a6432f2afa8667aa52d&#45;&gt;a4a74563b6e14eade8350a3ed12f471a -->
<g id="edge1" class="edge"><title>36bc593d778e1a6432f2afa8667aa52d&#45;&gt;a4a74563b6e14eade8350a3ed12f471a</title>
<path fill="none" stroke="black" stroke-dasharray="5,2" d="M93.7978,-93.6966C102.604,-85.135 113.382,-74.6562 123.001,-65.3045"/>
<polygon fill="none" stroke="black" points="125.677,-67.5846 130.407,-58.1043 120.797,-62.5657 125.677,-67.5846"/>
</g>
<!-- 74909abd081aa3082016e228064a88ca -->
<g id="node3" class="node"><title>74909abd081aa3082016e228064a88ca</title>
<polygon fill="none" stroke="black" points="280.207,-130 159.793,-130 159.793,-94 280.207,-94 280.207,-130"/>
<text text-anchor="middle" x="220" y="-107.8" font-family="Times,serif" font-size="14.00">MeetupRepository</text>
</g>
<!-- 74909abd081aa3082016e228064a88ca&#45;&gt;a4a74563b6e14eade8350a3ed12f471a -->
<g id="edge2" class="edge"><title>74909abd081aa3082016e228064a88ca&#45;&gt;a4a74563b6e14eade8350a3ed12f471a</title>
<path fill="none" stroke="black" stroke-dasharray="5,2" d="M202.202,-93.6966C193.396,-85.135 182.618,-74.6562 172.999,-65.3045"/>
<polygon fill="none" stroke="black" points="175.203,-62.5657 165.593,-58.1043 170.323,-67.5846 175.203,-62.5657"/>
</g>
</g>
</svg>
